<mxfile host="app.diagrams.net" modified="2023-06-09T05:40:13.078Z" agent="Mozilla/5.0 (Windows NT 10.0; Win64; x64) AppleWebKit/537.36 (KHTML, like Gecko) Chrome/114.0.0.0 Safari/537.36" version="21.2.9" etag="hE_xogUk16GfAY2ZTJfc" type="github">
  <diagram name="Page-1" id="9vxtHVAnp34B8w1KP0Tl">
    <mxGraphModel>
      <root>
        <mxCell id="0" />
        <mxCell id="1" parent="0" />
      </root>
    </mxGraphModel>
  </diagram>
</mxfile>
